:SAMPLES-PER-SECOND 30
:FULLY-SPECIFIED
:DEGREES
486
root  -1.38852 5.97789 15.9367 -43.841 -3.54581 1.37211
RightUpLeg  -88.5376 -12.1464 16.8705
RightLeg  78.0235 12.999 -24.5366
RightFoot  21.6225 5.15914 -16.626
RightToes  5.82077e-011 -3.18055e-015 -2.98177e-016
Spine  27.7909 4.2547 4.44179
Spine1  23.7352 5.90267 -7.15694
HEad  -11.5137 -4.53016 -10.6244
LeftShoulder1  -3.88251e-019 9.70628e-020 -3.87848e-018
LeftArm  34.5495 74.7808 4.17371
LeftForeArm  -16.903 -17.9731 -1.47548
LeftHand  -8.4513 -10.17 59.2054
RightShoulder  6.3938 10.0455 30.6774
RightArm  23.0279 -48.6178 -11.1932
RightForeArm  41.75 9.60912 -2.93529
RightHand  -2.24414 8.60901 -18.4377
LeftUpLeg  -93.5036 14.2615 -10.2004
LeftLeg  88.0508 -14.4876 22.0782
LeftFoot  24.3601 -1.27384 3.95742
LeftToes  5.91571e-011 -3.44359e-011 -3.93244e-011
487
root  -1.24311 5.99081 15.9663 -43.6584 -4.08281 0.612829
RightUpLeg  -88.1735 -11.0865 17.0278
RightLeg  78.2863 13.2621 -22.539
RightFoot  22.1489 5.31171 -16.8438
RightToes  5.82077e-011 -3.18055e-015 -2.98177e-016
Spine  27.8823 4.76679 3.87801
Spine1  22.5248 6.26597 -7.33582
HEad  -12.3856 -4.03098 -13.1463
LeftShoulder1  -3.88251e-019 9.70628e-020 -3.87848e-018
LeftArm  49.0273 75.4335 15.0243
LeftForeArm  -20.9014 -21.5403 -0.559014
LeftHand  -9.00234 -10.7648 60.4187
RightShoulder  6.31267 10.0128 30.31
RightArm  22.8722 -49.9141 -9.67725
RightForeArm  39.2008 10.2794 -2.89529
RightHand  -1.99928 8.12853 -17.0361
LeftUpLeg  -93.931 15.2129 -10.4618
LeftLeg  87.14 -14.3697 24.8055
LeftFoot  25.8957 -1.77765 5.22402
LeftToes  5.91571e-011 -3.44359e-011 -3.93244e-011
488
root  -1.07824 6.01704 15.996 -43.3939 -4.58761 -0.247808
RightUpLeg  -87.9402 -10.2474 17.1189
RightLeg  78.8827 13.7032 -19.6954
RightFoot  23.121 5.15334 -15.9094
RightToes  5.82077e-011 -3.18055e-015 -2.98177e-016
Spine  28.0501 5.16031 3.57148
Spine1  21.1011 6.42989 -7.48832
HEad  -12.7538 -3.61357 -15.7355
LeftShoulder1  -3.88251e-019 9.70628e-020 -3.87848e-018
LeftArm  61.6074 75.86 24.49
LeftForeArm  -25.2412 -24.0267 0.979693
LeftHand  -9.30797 -10.783 62.0507
RightShoulder  6.30814 9.99362 30.3255
RightArm  23.3345 -51.3941 -8.91914
RightForeArm  36.4643 11.3656 -2.94804
RightHand  -1.73431 7.66952 -15.3397
LeftUpLeg  -94.3757 15.6467 -10.6727
LeftLeg  86.5792 -14.2041 25.7398
LeftFoot  26.8881 -2.52224 7.14274
LeftToes  5.91571e-011 -3.44359e-011 -3.93244e-011
489
root  -0.907661 6.04047 16.0309 -43.2159 -5.06115 -1.17616
RightUpLeg  -87.6147 -9.51107 16.9432
RightLeg  79.5731 14.1312 -16.9424
RightFoot  24.3049 4.77297 -14.2847
RightToes  5.82077e-011 -3.18055e-015 -2.98177e-016
Spine  28.2856 5.47484 3.35705
Spine1  19.6856 6.41934 -7.43918
HEad  -12.8188 -3.28681 -18.3024
LeftShoulder1  -3.88251e-019 9.70628e-020 -3.87848e-018
LeftArm  70.3968 76.5746 33.656
LeftForeArm  -26.7574 -25.4878 2.47548
LeftHand  -9.11306 -10.2403 62.7501
RightShoulder  6.36649 10.0098 30.6055
RightArm  24.5437 -52.7971 -8.78417
RightForeArm  34.4876 12.4357 -3.00712
RightHand  -1.55314 7.74755 -13.6877
LeftUpLeg  -94.6945 15.6342 -10.8773
LeftLeg  86.6998 -14.2046 25.1266
LeftFoot  26.374 -3.38248 9.62899
LeftToes  5.91571e-011 -3.44359e-011 -3.93244e-011
490
root  -0.738532 6.06174 16.081 -43.2354 -5.44844 -2.19493
RightUpLeg  -87.0932 -8.92351 16.5999
RightLeg  80.0076 14.3664 -15.3858
RightFoot  25.3757 4.5175 -13.1511
RightToes  5.82077e-011 -3.18055e-015 -2.98177e-016
Spine  28.5097 5.62141 3.09947
Spine1  18.644 6.20613 -7.08474
HEad  -13.3547 -2.96937 -20.8527
LeftShoulder1  -3.88251e-019 9.70628e-020 -3.87848e-018
LeftArm  77.0961 77.5256 43.3568
LeftForeArm  -25.5244 -26.3286 3.53548
LeftHand  -8.86464 -9.84765 62.6775
RightShoulder  6.46704 10.0639 31.0306
RightArm  25.7318 -53.932 -8.73847
RightForeArm  33.0933 13.154 -3.05543
RightHand  -1.35002 7.9117 -11.785
LeftUpLeg  -94.7612 15.3267 -10.8405
LeftLeg  87.0039 -14.305 24.7434
LeftFoot  25.2853 -4.01729 11.7148
LeftToes  5.91571e-011 -3.44359e-011 -3.93244e-011
491
root  -0.576454 6.08999 16.1472 -43.3946 -5.78134 -3.33159
RightUpLeg  -86.4316 -8.538 16.2906
RightLeg  80.042 14.3783 -15.3424
RightFoot  26.1831 4.42201 -12.6093
RightToes  5.82077e-011 -3.18055e-015 -2.98177e-016
Spine  28.605 5.56099 2.80445
Spine1  18.1186 5.8038 -6.47221
HEad  -14.6424 -2.61883 -23.3089
LeftShoulder1  -3.88251e-019 9.70628e-020 -3.87848e-018
LeftArm  83.8755 78.3047 52.9965
LeftForeArm  -23.9154 -26.7932 4.09459
LeftHand  -9.05947 -10.0848 62.9725
RightShoulder  6.60893 10.1405 31.6235
RightArm  26.5634 -54.796 -8.7218
RightForeArm  32.5814 13.6133 -3.24012
RightHand  -1.25665 7.83136 -11.0718
LeftUpLeg  -94.7056 14.9137 -10.411
LeftLeg  87.1294 -14.3995 25.1872
LeftFoot  24.8184 -4.31339 12.7203
LeftToes  5.91571e-011 -3.44359e-011 -3.93244e-011
492
root  -0.431985 6.1266 16.216 -43.5379 -6.16721 -4.47
RightUpLeg  -85.7725 -8.1879 16.0316
RightLeg  79.7921 14.2434 -16.27
RightFoot  26.6923 4.15862 -11.7235
RightToes  5.82077e-011 -3.18055e-015 -2.98177e-016
Spine  28.5639 5.45941 2.34346
Spine1  17.7786 5.25586 -5.56656
HEad  -16.1964 -2.14182 -25.5075
LeftShoulder1  -3.88251e-019 9.70628e-020 -3.87848e-018
LeftArm  91.9576 78.6363 62.3342
LeftForeArm  -23.5041 -26.9797 4.27848
LeftHand  -9.49044 -10.5583 63.7714
RightShoulder  6.77037 10.2021 32.3446
RightArm  27.584 -55.4161 -9.25058
RightForeArm  33.4729 14.0294 -3.60379
RightHand  -1.69126 7.99561 -14.5362
LeftUpLeg  -94.7341 14.5613 -9.78624
LeftLeg  87.1835 -14.478 25.7643
LeftFoot  24.8737 -4.47395 13.1642
LeftToes  5.91571e-011 -3.44359e-011 -3.93244e-011
493
root  -0.313442 6.16062 16.2682 -43.616 -6.54712 -5.45727
RightUpLeg  -85.2377 -7.79314 15.7582
RightLeg  79.537 14.0993 -17.2347
RightFoot  26.8968 3.69193 -10.392
RightToes  5.82077e-011 -3.18055e-015 -2.98177e-016
Spine  28.5271 5.42255 1.45349
Spine1  17.2331 4.54117 -4.32733
HEad  -17.5546 -1.3956 -27.3613
LeftShoulder1  -3.88251e-019 9.70628e-020 -3.87848e-018
LeftArm  101.42 78.4875 72.1362
LeftForeArm  -23.9179 -27.0113 4.29762
LeftHand  -9.68294 -10.661 64.4702
RightShoulder  6.88083 10.2032 32.9221
RightArm  29.0391 -55.8088 -10.4497
RightForeArm  34.6632 14.4705 -3.99825
RightHand  -2.63066 8.53527 -21.6023
LeftUpLeg  -94.805 14.282 -9.3156
LeftLeg  87.2505 -14.5417 26.1009
LeftFoot  24.7456 -4.70153 13.868
LeftToes  5.91571e-011 -3.44359e-011 -3.93244e-011
494
root  -0.218632 6.17859 16.2923 -43.7763 -6.73884 -6.29024
RightUpLeg  -84.7908 -7.59807 15.5432
RightLeg  79.5318 14.0737 -17.5513
RightFoot  26.7624 3.3777 -9.57077
RightToes  5.82077e-011 -3.18055e-015 -2.98177e-016
Spine  28.6086 5.30052 0.135154
Spine1  16.5856 3.62817 -2.97537
HEad  -18.7132 -0.415529 -28.867
LeftShoulder1  -3.88251e-019 9.70628e-020 -3.87848e-018
LeftArm  110.945 77.9838 82.3337
LeftForeArm  -24.2946 -26.9382 4.28416
LeftHand  -9.59708 -10.3962 64.8934
RightShoulder  6.89253 10.1373 33.1263
RightArm  30.4288 -56.0487 -11.7095
RightForeArm  34.2857 14.9571 -4.39626
RightHand  -3.44366 9.09814 -27.0602
LeftUpLeg  -94.6775 14.0113 -9.08916
LeftLeg  87.2865 -14.5756 26.2701
LeftFoot  24.3227 -4.9689 14.8097
LeftToes  5.91571e-011 -3.44359e-011 -3.93244e-011
495
root  -0.13984 6.18281 16.295 -44.15 -6.79851 -7.01321
RightUpLeg  -84.2685 -7.67554 15.5025
RightLeg  79.7457 14.1511 -17.3498
RightFoot  26.277 3.32103 -9.53595
RightToes  5.82077e-011 -3.18055e-015 -2.98177e-016
Spine  28.7288 4.99784 -1.25026
Spine1  16.2445 2.64764 -1.8373
HEad  -19.7133 0.508376 -30.0001
LeftShoulder1  -3.88251e-019 9.70628e-020 -3.87848e-018
LeftArm  119.275 77.2744 91.815
LeftForeArm  -24.5667 -26.8525 4.29719
LeftHand  -9.54943 -10.2196 65.2359
RightShoulder  6.85746 10.06 33.111
RightArm  31.4937 -56.1512 -12.6459
RightForeArm  32.0586 15.5356 -4.89516
RightHand  -3.619 9.38276 -27.8053
LeftUpLeg  -94.2816 13.8539 -8.9059
LeftLeg  87.3733 -14.6064 26.1757
LeftFoot  23.9079 -5.13244 15.4634
LeftToes  5.91571e-011 -3.44359e-011 -3.93244e-011
496
root  -0.0658167 6.19357 16.2891 -44.5824 -6.99478 -7.64108
RightUpLeg  -83.6789 -7.69055 15.5923
RightLeg  79.9429 14.2212 -17.1667
RightFoot  25.6206 3.20777 -9.38132
RightToes  5.82077e-011 -3.18055e-015 -2.98177e-016
Spine  28.6822 4.67705 -2.32831
Spine1  16.3084 1.78994 -0.922458
HEad  -20.4379 1.08356 -30.7702
LeftShoulder1  -3.88251e-019 9.70628e-020 -3.87848e-018
LeftArm  126.249 76.4179 99.6582
LeftForeArm  -25.002 -26.9581 4.37467
LeftHand  -9.7014 -10.3447 65.632
RightShoulder  6.84729 10.0206 33.1436
RightArm  32.4181 -56.0569 -13.5159
RightForeArm  29.1111 16.0877 -5.39186
RightHand  -3.34958 9.01864 -26.4406
LeftUpLeg  -93.863 13.8862 -8.56347
LeftLeg  87.5543 -14.6611 25.9008
LeftFoot  23.595 -5.15301 15.6617
LeftToes  5.91571e-011 -3.44359e-011 -3.93244e-011
497
root  0.0106187 6.21936 16.2734 -44.8029 -7.36208 -8.24759
RightUpLeg  -83.2477 -7.43782 15.6543
RightLeg  80.0309 14.2485 -17.144
RightFoot  25.0233 2.83858 -8.47337
RightToes  5.82077e-011 -3.18055e-015 -2.98177e-016
Spine  28.3922 4.49146 -3.06154
Spine1  16.5213 1.04916 0.0782671
HEad  -20.9392 1.29011 -31.3214
LeftShoulder1  -3.88251e-019 9.70628e-020 -3.87848e-018
LeftArm  132.184 75.4624 105.625
LeftForeArm  -25.7607 -27.3476 4.50091
LeftHand  -9.90028 -10.4781 66.2425
RightShoulder  6.82355 9.97808 33.1116
RightArm  33.0336 -55.9109 -14.4059
RightForeArm  26.3154 16.4182 -5.71256
RightHand  -3.15925 8.38166 -26.1025
LeftUpLeg  -93.6471 13.8511 -8.02605
LeftLeg  87.6304 -14.6944 25.8895
LeftFoot  23.3839 -5.11194 15.6332
LeftToes  5.91571e-011 -3.44359e-011 -3.93244e-011
